<svg width="32" height="32" viewBox="0 0 32 32" fill="none" xmlns="http://www.w3.org/2000/svg">
  <defs>
    <linearGradient id="legalGrad" x1="0%" y1="0%" x2="100%" y2="100%">
      <stop offset="0%" style="stop-color:#1a365d;stop-opacity:1" />
      <stop offset="50%" style="stop-color:#b8860b;stop-opacity:1" />
      <stop offset="100%" style="stop-color:#1a365d;stop-opacity:1" />
    </linearGradient>
    <filter id="legalShadow" x="-50%" y="-50%" width="200%" height="200%">
      <feDropShadow dx="0" dy="1" stdDeviation="2" flood-color="rgba(0,0,0,0.4)"/>
    </filter>
  </defs>
  
  <!-- Background circle -->
  <circle cx="16" cy="16" r="15" fill="url(#legalGrad)" filter="url(#legalShadow)"/>
  
  <!-- Justice scale symbol -->
  <path d="M16 6 L16 26 M12 10 L20 10 M10 10 Q8 10 8 12 Q8 14 10 14 L14 14 Q16 14 16 12 Q16 10 14 10 M18 10 Q16 10 16 12 Q16 14 18 14 L22 14 Q24 14 24 12 Q24 10 22 10" 
        stroke="#daa520" 
        stroke-width="1.5" 
        fill="none" 
        stroke-linecap="round" 
        stroke-linejoin="round"/>
  
  <!-- RR initials -->
  <text x="16" y="22" font-family="serif" font-size="8" font-weight="bold" text-anchor="middle" fill="#daa520">RR</text>
  
  <!-- Legal glow -->
  <circle cx="16" cy="16" r="15" fill="none" stroke="rgba(218,165,32,0.3)" stroke-width="0.5"/>
</svg>